# xmcd
#
# Track frame offsets:
#	182
#	14747
#	27115
#	39722
#	52465
#	65785
#	80317
#	92810
#	105990
#	120852
#	135897
#	148397
#	162477
#	175212
#	187595
#	199800
#	211962
#	225512
#	240177
#	254970
#
# Disc length: 3567 seconds
#
# Revision: 0
# Processed by: cddbd v1.5PL3 Copyright (c) Steve Scherf et al.
# Submitted via: dBpowerAMP V4.0
#
DISCID=170ded14
DTITLE=Tropical Panama - 20 Reales Superexitos
DYEAR=1900
DGENRE=latin
TTITLE0=El Carita
TTITLE1=Voy a Llorar
TTITLE2=La Gallina
TTITLE3=El Sampa
TTITLE4=El Solterito
TTITLE5=La Fiera
TTITLE6=Me Engaño la Bruja
TTITLE7=Ganas de Llorar
TTITLE8=La Mano
TTITLE9=El Gallito
TTITLE10=La Pollera Colora
TTITLE11=El Rorro
TTITLE12=Embrujo
TTITLE13=Por Que Te Vas
TTITLE14=Morenita Mía
TTITLE15=Nunca Te Olvidaré
TTITLE16=La Pantera Cumbiambera
TTITLE17=El Pum del Amor
TTITLE18=Sagüita al Bat
TTITLE19=La Casita
EXTD=
EXTT0=
EXTT1=
EXTT2=
EXTT3=
EXTT4=
EXTT5=
EXTT6=
EXTT7=
EXTT8=
EXTT9=
EXTT10=
EXTT11=
EXTT12=
EXTT13=
EXTT14=
EXTT15=
EXTT16=
EXTT17=
EXTT18=
EXTT19=
PLAYORDER=
